<?xml version="1.0" encoding="iso-8859-1"?>
<!-- Uploaded to: SVG Repo, www.svgrepo.com, Generator: SVG Repo Mixer Tools -->
<svg height="800px" width="800px" version="1.1" id="Layer_1" xmlns="http://www.w3.org/2000/svg" xmlns:xlink="http://www.w3.org/1999/xlink" 
	 viewBox="0 0 480.011 480.011" xml:space="preserve">
<g transform="matrix(1.0001 0 0 1.0014 1190.02 -541.79)">
	<ellipse style="fill:#E74C3C;" cx="-949.919" cy="780.703" rx="239.982" ry="239.67"/>
	<g>
		<g transform="translate(0 540.36)">
			<path style="fill:#3B3C3D;" d="M-894.728,59.841l12.551,7.766c-4.428,2.415-7.489,5.817-8.602,9.563l12.027-7.441l5.141,3.18
				c-0.495-1.656-1.375-3.26-2.607-4.748l6.559-4.057c-3.039,0.199-6.018,0.817-8.758,1.814
				C-882.481,62.452-888.4,60.247-894.728,59.841z M-873.611,72.907l21.119-13.066C-862.835,60.502-871.542,65.89-873.611,72.907z
				 M-890.779,77.169c-2.068-7.017-10.775-12.404-21.117-13.066L-890.779,77.169z"/>
			<path style="fill:#3B3C3D;" d="M-1016.634,50.046c-3.383,0.146-6.743,0.621-10.029,1.42l27.445,37.148
				c-16.764-0.583-34.13,9.871-45.244,27.236c-4.334-1.159-8.7-1.709-12.967-1.633c-11.166,0.233-21.109,4.738-27.924,12.654
				c-1.87-11.496-9.163-21.217-20.18-26.902c-6.612-3.403-14.29-5.21-22.357-5.262c-4.46-0.013-8.978,0.511-13.43,1.557
				c-3.392,4.451-6.627,9.02-9.699,13.697l27.186,13.988c-16.894,6.19-30.275,22.651-34.178,42.049l28.725-9.209
				c0.035,0.105,0.072,0.21,0.109,0.314c2.313,5.726,7.82,9.322,13.395,8.746c-3.934,9.778-7.154,20.536-9.559,32.021
				c-22.851,2.367-43.944,6.4-62.33,11.756c-1.092,8.351-1.743,16.753-1.949,25.172h59.578
				c-3.113,59.989,14.629,117.624,42.721,147.654c-16.059,3.187-31.414,7.317-45.787,12.316
				c45.522,53.96,112.539,85.145,183.189,85.242c50.917-0.103,100.483-16.378,141.527-46.471
				c-42.361-36.777-117.058-59.167-197.502-59.201c-11.729,0.056-23.434,0.59-35.014,1.596
				c-17.176-31.657-16.94-87.989-0.133-141.137h330.902c-0.233-11.67-1.319-23.308-3.25-34.82
				c-29.451-9.603-65.188-15.238-103.732-15.238c-54.848,0-104.022,11.402-137.457,29.434c-20.268-7.237-44.779-12.72-71.924-15.824
				c10.387-21.155,22.87-38.578,36.156-50.404c1.364,6.188,5.716,10.454,10.668,10.457c4.628-0.007,8.767-3.745,10.387-9.381
				l21.209,55.369c11.84-18.585,15.158-43.12,8.477-62.67l39.23,17.439c-2.968-23.794-16.271-44.439-33.6-52.143
				c-10.439-4.617-21.338-4.065-30.613,1.553c2.549-13.31-0.593-27.054-8.695-38.035
				C-983.272,57.014-999.565,49.313-1016.634,50.046z M-1032.763,120.567l16.217,1.361c-0.007,0.13-0.012,0.26-0.016,0.391
				c0.007,7.233,3.773,13.546,9.16,15.354c-1.048,1.278-2.088,2.593-3.123,3.928
				C-1016.011,132.774-1023.779,125.428-1032.763,120.567L-1032.763,120.567z M-977.169,128.454l0.645,1.684
				c-0.244-0.093-0.49-0.175-0.738-0.246L-977.169,128.454L-977.169,128.454z M-1011.634,143.036
				c-9.404,12.365-18.231,27.02-26.072,43.438c1.418-16.206-3.747-32.079-13.883-42.672L-1011.634,143.036z M-1090.671,147.29
				l1.146,1.104c-0.26,0.013-0.518,0.036-0.775,0.068L-1090.671,147.29L-1090.671,147.29z M-1076.798,160.649l35.326,34.02
				c-0.319,0.721-0.64,1.439-0.955,2.166c-11.559-0.891-23.507-1.365-35.742-1.365c-10.486,0-20.761,0.347-30.762,1.006
				c3.15-10.754,7.265-20.504,12.248-28.842c3.239,4.393,8.637,6.15,13.233,4.307
				C-1079.159,170.213-1076.508,165.715-1076.798,160.649L-1076.798,160.649z M-1115.585,234.8h59.379
				c-14.444,48.532-17.665,98.088-9.791,135.389C-1098.475,351.705-1119.682,293.622-1115.585,234.8z"/>
			<path style="fill:#3B3C3D;" d="M-759.023,257.421l12.027,19.768l33.922-0.139c1.029-6.509,1.789-13.057,2.277-19.629H-759.023z"
				/>
		</g>
		<g transform="matrix(-0.43503 0.90041 -0.86118 -0.5083 0 0)">
			<path style="fill:#3B3C3D;" d="M1065.708,304.688c0,13.444-6.964,25.536-17.589,30.54c-10.625,5.004-22.773,1.915-30.683-7.804"
				/>
			<path style="fill:#3B3C3D;" d="M1168.604,410.491c0,13.444-6.964,25.536-17.589,30.54c-10.625,5.004-22.773,1.915-30.683-7.804"
				/>
		</g>
		<path style="fill:#3B3C3D;" d="M-820.693,836.653l-9.058,19.551l-53.123,0.216l-12.029-19.767H-820.693z"/>
	</g>
</g>
</svg>