<?xml version="1.0" encoding="iso-8859-1"?>
<!-- Uploaded to: SVG Repo, www.svgrepo.com, Generator: SVG Repo Mixer Tools -->
<svg version="1.1" id="Layer_1" xmlns="http://www.w3.org/2000/svg" xmlns:xlink="http://www.w3.org/1999/xlink" 
	 viewBox="0 0 512 512" xml:space="preserve">
<rect x="113.748" y="476.062" style="fill:#D0E8FF;" width="269.469" height="17.965"/>
<g>
	<path style="fill:#5CB0FF;" d="M77.826,323.372h161.681V179.655H77.826C77.826,179.655,77.826,323.372,77.826,323.372z
		 M89.44,209.233l17.965-17.965c3.509-3.509,9.193-3.509,12.701,0c3.508,3.509,3.509,9.193,0,12.701l-17.965,17.965
		c-1.754,1.754-4.053,2.632-6.351,2.632s-4.596-0.877-6.351-2.632C85.931,218.426,85.931,212.742,89.44,209.233z"/>
	<path style="fill:#5CB0FF;" d="M257.472,323.372h161.681V179.655H257.472L257.472,323.372L257.472,323.372z M287.05,191.269
		c3.509-3.509,9.193-3.509,12.701,0c3.508,3.509,3.509,9.193,0,12.701l-17.965,17.965c-1.754,1.754-4.053,2.632-6.351,2.632
		c-2.298,0-4.596-0.877-6.351-2.632c-3.509-3.509-3.509-9.193,0-12.701L287.05,191.269z"/>
</g>
<g>
	<path style="fill:#D0E8FF;" d="M257.472,341.336v0.246h-17.965v-0.246H77.826v98.744c0,9.938,8.083,18.026,18.022,18.026h8.925
		h287.434h8.925c9.938,0,18.022-8.088,18.022-18.026v-98.744H257.472z"/>
	<path style="fill:#D0E8FF;" d="M95.848,116.779c-9.938,0-18.022,8.088-18.022,18.026v26.886h161.681h17.965h161.681v-26.885
		c0-9.938-8.083-18.026-18.022-18.026L95.848,116.779L95.848,116.779z"/>
</g>
<g>
	<path style="fill:#FFFFFF;" d="M95.79,224.566c2.298,0,4.596-0.877,6.351-2.632l17.965-17.965c3.509-3.509,3.509-9.193,0-12.701
		c-3.509-3.508-9.193-3.509-12.701,0L89.44,209.233c-3.509,3.509-3.509,9.193,0,12.701C91.194,223.689,93.492,224.566,95.79,224.566
		z"/>
	<path style="fill:#FFFFFF;" d="M269.086,221.935c1.754,1.754,4.053,2.632,6.351,2.632s4.596-0.877,6.351-2.632l17.965-17.965
		c3.509-3.509,3.509-9.193,0-12.701c-3.509-3.508-9.193-3.509-12.701,0l-17.965,17.965
		C265.577,212.742,265.577,218.426,269.086,221.935z"/>
</g>
<path style="fill:#1C71DA;" d="M485.819,8.64c-0.193-4.965-4.25-8.939-9.329-8.623L22.559,17.982
	c-4.838,0.193-8.627,4.166-8.627,8.965c0,0.123,0.004,0.246,0.009,0.36c0.189,4.842,4.171,8.632,8.969,8.632
	c0.118,0,0.237,0,0.36-0.009l264.666-10.474c-0.214,0.154-0.471,0.203-0.675,0.378L249.698,58.18L220.705,33.14
	c-3.759-3.246-9.434-2.833-12.671,0.93c-3.241,3.754-2.829,9.421,0.925,12.666l26.974,23.297l-33.422,28.781H95.848
	c-19.842,0-35.986,16.149-35.986,35.991v35.868v161.681V440.08c0,19.822,16.115,35.953,35.929,35.985v26.953
	c0,4.965,4.022,8.982,8.982,8.982h287.434c4.96,0,8.982-4.018,8.982-8.982v-26.953c19.814-0.032,35.929-16.163,35.929-35.985
	V332.354V170.672v-35.868c0-19.842-16.145-35.991-35.986-35.991H296.745L263.442,70.05l35.538-30.604
	c3.759-3.237,4.184-8.912,0.947-12.666c-0.633-0.735-1.417-1.235-2.206-1.713l179.479-7.103c4.838-0.193,8.627-4.167,8.627-8.965
	C485.828,8.877,485.823,8.754,485.819,8.64z M419.153,323.372H257.472V179.655h161.681V323.372z M239.507,323.372H77.826V179.655
	h161.681V323.372z M383.224,494.035H113.755v-17.965h269.469V494.035z M401.132,458.106h-8.925H104.773h-8.925
	c-9.938,0-18.022-8.088-18.022-18.026v-98.744h161.681v0.246h17.965v-0.246h161.681v98.744
	C419.153,450.019,411.07,458.106,401.132,458.106z M419.153,134.805v26.886H257.472h-17.965H77.826v-26.886
	c0-9.938,8.083-18.026,18.022-18.026h305.284C411.07,116.779,419.153,124.866,419.153,134.805z M269.257,98.814H230.04
	l19.637-16.911L269.257,98.814z"/>
<g>
	<path style="fill:#FF5D5D;" d="M114.911,428.914c-2.299,0-4.598-0.877-6.352-2.632c-3.508-3.506-3.508-9.195,0-12.701
		l31.757-31.758c3.509-3.509,9.195-3.509,12.704,0c3.508,3.506,3.508,9.195,0,12.701l-31.757,31.758
		C119.508,428.036,117.21,428.914,114.911,428.914z"/>
	<path style="fill:#FF5D5D;" d="M146.668,428.914c-2.299,0-4.598-0.877-6.352-2.632l-31.757-31.756
		c-3.508-3.506-3.508-9.195,0-12.701c3.509-3.509,9.195-3.509,12.704,0l31.757,31.756c3.508,3.506,3.508,9.195,0,12.701
		C151.265,428.036,148.967,428.914,146.668,428.914z"/>
</g>
<path style="fill:#00D40B;" d="M361.924,428.914c-17.335,0-31.438-14.103-31.438-31.438c0-17.335,14.103-31.438,31.438-31.438
	c17.335,0,31.438,14.103,31.438,31.438C393.362,414.811,379.259,428.914,361.924,428.914z M361.924,384.002
	c-7.43,0-13.473,6.044-13.473,13.473c0,7.43,6.044,13.473,13.473,13.473s13.473-6.044,13.473-13.473
	C375.398,390.046,369.354,384.002,361.924,384.002z"/>
<path style="fill:#FFC504;" d="M463.68,102.468c-2.298,0-4.598-0.877-6.351-2.632l-25.406-25.405
	c-1.685-1.684-2.632-3.969-2.632-6.351s0.946-4.667,2.632-6.351l25.406-25.405c3.509-3.506,9.196-3.506,12.703,0l25.405,25.405
	c3.508,3.506,3.508,9.195,0,12.701l-25.405,25.405C468.278,101.59,465.978,102.468,463.68,102.468z M450.976,68.08l12.704,12.701
	l12.703-12.701L463.68,55.378L450.976,68.08z"/>
</svg>